<svg xmlns="http://www.w3.org/2000/svg" xmlns:xlink="http://www.w3.org/1999/xlink" width="2500" zoomAndPan="magnify" viewBox="0 0 1874.88 389.999986" height="520" preserveAspectRatio="xMidYMid meet" version="1.0"><defs><g/><clipPath id="347b718aa4"><path d="M 39 40 L 398.972656 40 L 398.972656 352.488281 L 39 352.488281 Z M 39 40 " clip-rule="nonzero"/></clipPath></defs><path fill="#ffffff" d="M 254.648438 216.613281 C 254.015625 225.875 250.226562 258.507812 262.648438 268.402344 C 275.070312 278.300781 290.859375 266.929688 291.28125 250.71875 C 292.964844 250.71875 296.964844 250.71875 296.964844 250.71875 C 296.964844 250.71875 298.019531 286.085938 272.542969 295.351562 C 247.070312 304.613281 228.542969 285.878906 229.171875 263.773438 C 229.582031 249.53125 232.609375 212.316406 234.710938 187.636719 C 235.875 174.003906 236.753906 164.191406 236.753906 164.191406 L 200.960938 164.191406 C 200.960938 164.191406 193.820312 253.859375 187.277344 279.140625 C 179.488281 309.246094 142.320312 299.597656 148.332031 275.5625 C 151.910156 261.246094 184.960938 241.457031 185.59375 164.191406 C 185.59375 164.191406 151.066406 157.453125 141.804688 187.5625 C 139.699219 187.769531 134.644531 187.5625 134.644531 187.5625 C 134.644531 187.5625 144.035156 162.464844 147.277344 155.980469 C 151.277344 147.980469 162.644531 141.035156 185.382812 140.402344 C 190.394531 140.261719 198.628906 140.175781 208.421875 140.121094 C 208.421875 140.121094 228.304688 140.058594 231.460938 140.058594 C 262.910156 140.03125 297.175781 140.191406 297.175781 140.191406 L 297.175781 164.824219 L 258.859375 164.824219 C 258.859375 164.824219 255.28125 207.351562 254.648438 216.613281 Z M 254.648438 216.613281 " fill-opacity="1" fill-rule="nonzero"/><path fill="#ffffff" d="M 217.800781 140.082031 C 219.039062 140.078125 220.300781 140.078125 221.566406 140.074219 C 218.113281 148.261719 215.597656 157.039062 214.207031 164.191406 L 212.519531 164.191406 C 212.636719 163.0625 212.769531 161.933594 212.933594 160.804688 C 213.96875 153.855469 215.675781 146.914062 217.800781 140.082031 Z M 217.800781 140.082031 " fill-opacity="1" fill-rule="nonzero"/><g clip-path="url(#347b718aa4)"><path fill="#f43f5e" d="M 236.574219 166.199219 C 236.261719 169.730469 235.5625 177.648438 234.710938 187.636719 C 233.632812 189.144531 232.214844 190.507812 230.539062 191.433594 C 228.375 192.6875 226.234375 193.425781 223.683594 193.457031 C 221.136719 193.484375 218.292969 192.972656 217.171875 192.625 C 214.9375 191.972656 212.734375 190.734375 211.058594 189.035156 C 209.363281 187.355469 208.132812 185.367188 207.304688 183.367188 C 205.632812 179.351562 205.078125 175.324219 204.867188 171.421875 C 204.753906 168.980469 204.792969 166.578125 204.910156 164.195312 C 204.980469 162.753906 205.074219 161.320312 205.203125 159.898438 C 205.859375 153.183594 207.019531 146.617188 208.421875 140.125 C 208.597656 139.308594 208.761719 138.492188 208.945312 137.683594 C 210.210938 132.035156 211.632812 126.515625 213.292969 120.949219 L 212.253906 119.148438 C 210.449219 116.101562 208.574219 113.097656 206.566406 110.199219 C 198.652344 98.527344 189.085938 88.136719 178.34375 79.605469 C 167.566406 71.144531 155.488281 64.578125 142.816406 61.152344 C 136.503906 59.359375 130.035156 58.558594 123.652344 58.507812 C 117.277344 58.605469 110.949219 59.5 104.976562 61.550781 C 92.972656 65.523438 82.601562 73.890625 74.921875 84.613281 C 67.15625 95.339844 61.164062 111.0625 58.847656 120.574219 C 56.527344 130.082031 54.867188 142.1875 54.867188 142.1875 C 54.0625 148.96875 54.011719 155.832031 54.507812 162.671875 C 55.542969 176.371094 59.222656 189.894531 64.601562 202.832031 C 70.050781 215.757812 77.285156 228.050781 85.648438 239.613281 C 94.039062 251.15625 103.378906 262.128906 113.488281 272.425781 C 123.605469 282.714844 134.378906 292.421875 145.578125 301.660156 C 156.789062 310.890625 168.492188 319.558594 180.476562 327.859375 C 192.503906 336.09375 204.820312 343.972656 217.476562 351.324219 C 204.214844 345.132812 191.175781 338.386719 178.511719 330.957031 C 165.804688 323.59375 153.46875 315.558594 141.507812 306.945312 C 129.519531 298.367188 118.019531 289.054688 107.09375 279.035156 C 96.210938 268.980469 85.796875 258.269531 76.566406 246.46875 C 67.304688 234.707031 59.058594 221.976562 52.5625 208.191406 C 49.367188 201.28125 46.535156 194.144531 44.414062 186.742188 C 42.3125 179.34375 40.722656 171.746094 39.929688 164.019531 C 39.136719 156.300781 38.972656 148.476562 39.660156 140.710938 C 39.660156 140.710938 41.078125 127.585938 42.742188 120.089844 C 44.40625 112.59375 46.972656 103.039062 49.972656 95.800781 C 52.941406 88.5625 56.578125 81.484375 61.175781 74.90625 C 63.453125 71.605469 65.953125 68.425781 68.71875 65.445312 C 71.453125 62.449219 74.417969 59.613281 77.640625 57.054688 C 84.023438 51.882812 91.355469 47.730469 99.1875 44.933594 C 107.011719 42.097656 115.328125 40.730469 123.558594 40.65625 C 131.792969 40.621094 139.945312 41.898438 147.671875 44.203125 C 163.164062 48.851562 176.863281 57.460938 188.296875 67.941406 C 194.054688 73.164062 199.25 78.90625 203.914062 84.988281 C 208.609375 91.050781 212.796875 97.441406 216.492188 104.0625 C 217.246094 105.394531 217.960938 106.742188 218.667969 108.09375 C 222.785156 100.136719 227.535156 92.449219 233.015625 85.199219 C 240.121094 75.722656 248.582031 67.113281 258.242188 59.777344 C 267.925781 52.492188 278.988281 46.636719 291.054688 43.238281 C 303.074219 39.792969 316.1875 39.007812 328.820312 41.625 C 335.117188 42.972656 341.285156 45.066406 347.027344 47.980469 C 352.761719 50.90625 358.140625 54.5 362.898438 58.714844 C 372.464844 67.117188 379.773438 77.515625 385.066406 88.480469 C 390.4375 99.457031 393.820312 111.050781 396.027344 122.664062 C 397.148438 128.496094 398.054688 133.863281 398.476562 140.1875 C 398.902344 146.511719 398.894531 151.578125 398.71875 158.261719 C 398.535156 164.945312 395.542969 182.074219 391.675781 193.273438 C 387.78125 204.472656 382.585938 215.074219 376.542969 225.042969 C 370.484375 235.003906 363.589844 244.34375 356.164062 253.152344 C 348.699219 261.933594 340.660156 270.136719 332.28125 277.910156 C 323.886719 285.671875 315.179688 293.039062 306.121094 299.914062 C 297.070312 306.804688 287.769531 313.316406 278.261719 319.476562 C 268.761719 325.652344 258.992188 331.386719 249.105469 336.851562 C 239.203125 342.292969 229.109375 347.363281 218.851562 352.035156 C 228.585938 346.355469 238.140625 340.402344 247.515625 334.21875 C 256.90625 328.046875 266.039062 321.519531 275.003906 314.8125 C 283.96875 308.097656 292.679688 301.078125 301.078125 293.734375 C 309.476562 286.386719 317.644531 278.8125 325.335938 270.816406 C 333.042969 262.835938 340.324219 254.488281 347 245.742188 C 353.722656 237.039062 359.847656 227.929688 365.085938 218.410156 C 370.3125 208.890625 374.640625 198.957031 377.707031 188.734375 C 380.804688 178.527344 383 164.109375 383.128906 158.417969 C 383.253906 152.730469 382.964844 147.9375 382.304688 141.886719 C 381.644531 135.835938 380.753906 131.238281 379.578125 126.050781 C 377.238281 115.632812 373.914062 105.535156 369.25 96.328125 C 364.605469 87.121094 358.472656 78.894531 350.980469 72.550781 C 343.5 66.199219 334.605469 61.925781 325.132812 60.128906 C 320.390625 59.273438 315.53125 58.960938 310.644531 59.207031 C 305.765625 59.496094 300.859375 60.234375 296.023438 61.5 C 286.351562 64.042969 276.949219 68.359375 268.238281 74.03125 C 259.460938 79.632812 251.453125 86.660156 244.148438 94.46875 C 232.535156 106.882812 224.699219 121.15625 224.699219 121.15625 L 226.089844 124.679688 C 226.570312 125.929688 227.011719 127.195312 227.472656 128.453125 C 228.878906 132.292969 230.222656 136.152344 231.460938 140.058594 C 228.308594 140.0625 225.183594 140.066406 222.121094 140.074219 C 222.03125 139.855469 221.933594 139.644531 221.84375 139.425781 C 221.140625 137.734375 220.429688 136.050781 219.683594 134.375 C 219.03125 136.269531 218.398438 138.171875 217.800781 140.085938 C 215.679688 146.917969 213.96875 153.859375 212.933594 160.804688 C 212.773438 161.9375 212.636719 163.066406 212.519531 164.195312 C 212.277344 166.539062 212.132812 168.875 212.183594 171.167969 C 212.253906 174.542969 212.640625 177.894531 213.761719 180.660156 C 214.898438 183.4375 216.648438 185.304688 219.167969 186.058594 C 219.789062 186.269531 221.523438 186.644531 223.375 186.585938 C 225.230469 186.53125 226.105469 186.0625 227.109375 185.460938 C 229.125 184.371094 230.359375 181.886719 230.816406 178.777344 C 231.289062 175.699219 231.125 172.269531 230.683594 168.863281 C 230.523438 167.75 230.324219 166.632812 230.109375 165.515625 C 230.023438 165.074219 229.945312 164.632812 229.855469 164.195312 L 236.753906 164.195312 C 236.753906 164.191406 236.6875 164.914062 236.574219 166.199219 Z M 236.574219 166.199219 " fill-opacity="1" fill-rule="nonzero"/></g><path fill="#9f1a25" d="M 226.085938 124.675781 C 226.570312 125.925781 227.007812 127.191406 227.46875 128.449219 C 225.394531 131.796875 223.511719 135.535156 221.84375 139.425781 C 221.140625 137.734375 220.425781 136.046875 219.683594 134.371094 C 221.226562 129.894531 222.925781 125.480469 224.695312 121.15625 Z M 229.851562 164.191406 C 229.941406 164.632812 230.023438 165.070312 230.109375 165.511719 L 236.574219 166.199219 C 236.691406 164.914062 236.753906 164.191406 236.753906 164.191406 Z M 229.851562 164.191406 " fill-opacity="1" fill-rule="nonzero"/><g fill="#f43f5e" fill-opacity="1"><g transform="translate(469.339634, 279.558336)"><g><path d="M 101.390625 -102.484375 L 67.953125 -102.484375 L 67.953125 0 L 39.796875 0 L 39.796875 -102.484375 L 6.359375 -102.484375 L 6.359375 -127.1875 L 101.390625 -127.1875 Z M 101.390625 -102.484375 "/></g></g></g><g fill="#f43f5e" fill-opacity="1"><g transform="translate(577.269001, 279.558336)"><g><path d="M 9.453125 -134.828125 L 37.796875 -134.828125 L 37.796875 -82.125 L 39.25 -82.125 C 41.3125 -86.613281 44.671875 -90.398438 49.328125 -93.484375 C 53.992188 -96.578125 59.660156 -98.125 66.328125 -98.125 C 78.921875 -98.125 87.640625 -94.15625 92.484375 -86.21875 C 97.328125 -78.28125 99.75 -69.40625 99.75 -59.59375 L 99.75 0 L 71.40625 0 L 71.40625 -54.6875 C 71.40625 -60.988281 70.007812 -65.957031 67.21875 -69.59375 C 64.4375 -73.226562 60.257812 -75.046875 54.6875 -75.046875 C 49.113281 -75.046875 44.90625 -73.164062 42.0625 -69.40625 C 39.21875 -65.65625 37.796875 -60.75 37.796875 -54.6875 L 37.796875 0 L 9.453125 0 Z M 9.453125 -134.828125 "/></g></g></g><g fill="#f43f5e" fill-opacity="1"><g transform="translate(685.925158, 279.558336)"><g><path d="M 43.0625 1.640625 C 31.1875 1.640625 22.007812 -2.867188 15.53125 -11.890625 C 9.050781 -20.921875 5.8125 -33.007812 5.8125 -48.15625 C 5.8125 -63.414062 9.140625 -75.554688 15.796875 -84.578125 C 22.460938 -93.609375 31.671875 -98.125 43.421875 -98.125 C 51.535156 -98.125 57.773438 -96.335938 62.140625 -92.765625 C 66.503906 -89.191406 69.535156 -85.585938 71.234375 -81.953125 L 72.6875 -81.953125 L 72.6875 -96.125 L 101.203125 -96.125 L 101.203125 0 L 72.6875 0 L 72.6875 -15.4375 L 71.234375 -15.4375 C 69.410156 -11.5625 66.285156 -7.742188 61.859375 -3.984375 C 57.441406 -0.234375 51.175781 1.640625 43.0625 1.640625 Z M 53.78125 -21.078125 C 60.207031 -21.078125 64.992188 -23.769531 68.140625 -29.15625 C 71.285156 -34.550781 72.859375 -40.941406 72.859375 -48.328125 C 72.859375 -55.597656 71.285156 -61.925781 68.140625 -67.3125 C 64.992188 -72.707031 60.207031 -75.40625 53.78125 -75.40625 C 47.125 -75.40625 42.25 -72.769531 39.15625 -67.5 C 36.070312 -62.226562 34.53125 -55.898438 34.53125 -48.515625 C 34.53125 -41.003906 36.070312 -34.550781 39.15625 -29.15625 C 42.25 -23.769531 47.125 -21.078125 53.78125 -21.078125 Z M 45.96875 -137 L 66.328125 -137 L 93.03125 -107.390625 L 67.59375 -107.390625 L 56.328125 -119.921875 L 55.609375 -119.921875 L 44.703125 -107.390625 L 19.4375 -107.390625 Z M 59.78125 -167.53125 L 87.59375 -167.53125 L 105.9375 -131.1875 L 83.59375 -131.015625 Z M 59.78125 -167.53125 "/></g></g></g><g fill="#f43f5e" fill-opacity="1"><g transform="translate(797.851919, 279.558336)"><g><path d="M 58.328125 13.8125 C 56.753906 18.164062 54.96875 22.160156 52.96875 25.796875 C 50.96875 29.429688 47.363281 33.003906 42.15625 36.515625 C 36.945312 40.035156 30.101562 41.796875 21.625 41.796875 C 18.113281 41.796875 15.054688 41.488281 12.453125 40.875 C 9.847656 40.269531 8.179688 39.910156 7.453125 39.796875 L 7.453125 20.171875 C 10.359375 20.648438 12.898438 20.890625 15.078125 20.890625 C 20.773438 20.890625 24.953125 19.617188 27.609375 17.078125 C 30.273438 14.535156 32.640625 10.597656 34.703125 5.265625 L 37.4375 -1.453125 L 3.265625 -96.125 L 31.796875 -96.125 L 50.6875 -32.53125 L 51.78125 -32.53125 L 71.234375 -96.125 L 99.75 -96.125 Z M 58.328125 13.8125 "/></g></g></g><g fill="#f43f5e" fill-opacity="1"><g transform="translate(897.241428, 279.558336)"><g/></g></g><g fill="#f43f5e" fill-opacity="1"><g transform="translate(939.032254, 279.558336)"><g><path d="M 101.390625 -102.484375 L 67.953125 -102.484375 L 67.953125 0 L 39.796875 0 L 39.796875 -102.484375 L 6.359375 -102.484375 L 6.359375 -127.1875 L 101.390625 -127.1875 Z M 101.390625 -102.484375 "/></g></g></g><g fill="#f43f5e" fill-opacity="1"><g transform="translate(1046.961621, 279.558336)"><g><path d="M 43.0625 1.640625 C 31.1875 1.640625 22.007812 -2.867188 15.53125 -11.890625 C 9.050781 -20.921875 5.8125 -33.007812 5.8125 -48.15625 C 5.8125 -63.414062 9.140625 -75.554688 15.796875 -84.578125 C 22.460938 -93.609375 31.671875 -98.125 43.421875 -98.125 C 51.535156 -98.125 57.773438 -96.335938 62.140625 -92.765625 C 66.503906 -89.191406 69.535156 -85.585938 71.234375 -81.953125 L 72.6875 -81.953125 L 72.6875 -96.125 L 101.203125 -96.125 L 101.203125 0 L 72.6875 0 L 72.6875 -15.4375 L 71.234375 -15.4375 C 69.410156 -11.5625 66.285156 -7.742188 61.859375 -3.984375 C 57.441406 -0.234375 51.175781 1.640625 43.0625 1.640625 Z M 53.78125 -21.078125 C 60.207031 -21.078125 64.992188 -23.769531 68.140625 -29.15625 C 71.285156 -34.550781 72.859375 -40.941406 72.859375 -48.328125 C 72.859375 -55.597656 71.285156 -61.925781 68.140625 -67.3125 C 64.992188 -72.707031 60.207031 -75.40625 53.78125 -75.40625 C 47.125 -75.40625 42.25 -72.769531 39.15625 -67.5 C 36.070312 -62.226562 34.53125 -55.898438 34.53125 -48.515625 C 34.53125 -41.003906 36.070312 -34.550781 39.15625 -29.15625 C 42.25 -23.769531 47.125 -21.078125 53.78125 -21.078125 Z M 45.78125 -137 L 66.140625 -137 L 92.84375 -107.390625 L 67.40625 -107.390625 L 56.140625 -119.921875 L 55.421875 -119.921875 L 44.515625 -107.390625 L 19.25 -107.390625 Z M 45.78125 -137 "/></g></g></g><g fill="#f43f5e" fill-opacity="1"><g transform="translate(1158.888381, 279.558336)"><g><path d="M 9.453125 -96.125 L 37.609375 -96.125 L 37.609375 -81.21875 L 39.0625 -81.21875 C 39.550781 -82.789062 40.734375 -84.878906 42.609375 -87.484375 C 44.484375 -90.085938 47.296875 -92.507812 51.046875 -94.75 C 54.804688 -97 59.414062 -98.125 64.875 -98.125 C 70.925781 -98.125 75.976562 -96.726562 80.03125 -93.9375 C 84.09375 -91.15625 87.09375 -88.21875 89.03125 -85.125 C 90.96875 -82.039062 92.117188 -79.769531 92.484375 -78.3125 L 93.765625 -78.3125 C 95.453125 -82.425781 98.445312 -86.753906 102.75 -91.296875 C 107.050781 -95.847656 113.863281 -98.125 123.1875 -98.125 C 131.664062 -98.125 138.328125 -95.910156 143.171875 -91.484375 C 148.023438 -87.066406 151.328125 -81.945312 153.078125 -76.125 C 154.835938 -70.3125 155.71875 -64.863281 155.71875 -59.78125 L 155.71875 0 L 127.5625 0 L 127.5625 -56.515625 C 127.5625 -62.203125 126.078125 -66.53125 123.109375 -69.5 C 120.140625 -72.46875 116.535156 -73.953125 112.296875 -73.953125 C 108.054688 -73.953125 104.390625 -72.4375 101.296875 -69.40625 C 98.210938 -66.382812 96.671875 -62.085938 96.671875 -56.515625 L 96.671875 0 L 68.5 0 L 68.5 -56.515625 C 68.5 -62.203125 67.015625 -66.53125 64.046875 -69.5 C 61.078125 -72.46875 57.472656 -73.953125 53.234375 -73.953125 C 48.992188 -73.953125 45.328125 -72.4375 42.234375 -69.40625 C 39.148438 -66.382812 37.609375 -62.085938 37.609375 -56.515625 L 37.609375 0 L 9.453125 0 Z M 9.453125 -96.125 "/></g></g></g><g fill="#f43f5e" fill-opacity="1"><g transform="translate(1323.689637, 279.558336)"><g/></g></g><g fill="#f43f5e" fill-opacity="1"><g transform="translate(1365.480417, 279.558336)"><g><path d="M 101.390625 -102.484375 L 67.953125 -102.484375 L 67.953125 0 L 39.796875 0 L 39.796875 -102.484375 L 6.359375 -102.484375 L 6.359375 -127.1875 L 101.390625 -127.1875 Z M 101.390625 -102.484375 "/></g></g></g><g fill="#f43f5e" fill-opacity="1"><g transform="translate(1473.409784, 279.558336)"><g><path d="M 53.0625 1.640625 C 42.882812 1.640625 34.3125 -0.597656 27.34375 -5.078125 C 20.375 -9.566406 15.191406 -15.566406 11.796875 -23.078125 C 8.410156 -30.585938 6.71875 -38.945312 6.71875 -48.15625 C 6.71875 -57.238281 8.410156 -65.5625 11.796875 -73.125 C 15.191406 -80.695312 20.375 -86.753906 27.34375 -91.296875 C 34.3125 -95.847656 42.882812 -98.125 53.0625 -98.125 C 63.238281 -98.125 71.804688 -95.878906 78.765625 -91.390625 C 85.734375 -86.910156 90.910156 -80.882812 94.296875 -73.3125 C 97.691406 -65.738281 99.390625 -57.410156 99.390625 -48.328125 C 99.390625 -39.242188 97.691406 -30.914062 94.296875 -23.34375 C 90.910156 -15.78125 85.734375 -9.722656 78.765625 -5.171875 C 71.804688 -0.628906 63.238281 1.640625 53.0625 1.640625 Z M 53.0625 -21.078125 C 59.351562 -21.078125 64.015625 -23.679688 67.046875 -28.890625 C 70.078125 -34.097656 71.59375 -40.640625 71.59375 -48.515625 C 71.59375 -56.390625 70.078125 -62.835938 67.046875 -67.859375 C 64.015625 -72.890625 59.351562 -75.40625 53.0625 -75.40625 C 46.757812 -75.40625 42.09375 -72.859375 39.0625 -67.765625 C 36.039062 -62.679688 34.53125 -56.265625 34.53125 -48.515625 C 34.53125 -40.640625 36.070312 -34.097656 39.15625 -28.890625 C 42.25 -23.679688 46.882812 -21.078125 53.0625 -21.078125 Z M 53.0625 -21.078125 "/></g></g></g><g fill="#f43f5e" fill-opacity="1"><g transform="translate(1579.522129, 279.558336)"><g><path d="M 43.0625 1.640625 C 31.1875 1.640625 22.007812 -2.867188 15.53125 -11.890625 C 9.050781 -20.921875 5.8125 -33.007812 5.8125 -48.15625 C 5.8125 -63.414062 9.140625 -75.554688 15.796875 -84.578125 C 22.460938 -93.609375 31.671875 -98.125 43.421875 -98.125 C 51.535156 -98.125 57.773438 -96.335938 62.140625 -92.765625 C 66.503906 -89.191406 69.535156 -85.585938 71.234375 -81.953125 L 72.6875 -81.953125 L 72.6875 -96.125 L 101.203125 -96.125 L 101.203125 0 L 72.6875 0 L 72.6875 -15.4375 L 71.234375 -15.4375 C 69.410156 -11.5625 66.285156 -7.742188 61.859375 -3.984375 C 57.441406 -0.234375 51.175781 1.640625 43.0625 1.640625 Z M 53.78125 -21.078125 C 60.207031 -21.078125 64.992188 -23.769531 68.140625 -29.15625 C 71.285156 -34.550781 72.859375 -40.941406 72.859375 -48.328125 C 72.859375 -55.597656 71.285156 -61.925781 68.140625 -67.3125 C 64.992188 -72.707031 60.207031 -75.40625 53.78125 -75.40625 C 47.125 -75.40625 42.25 -72.769531 39.15625 -67.5 C 36.070312 -62.226562 34.53125 -55.898438 34.53125 -48.515625 C 34.53125 -41.003906 36.070312 -34.550781 39.15625 -29.15625 C 42.25 -23.769531 47.125 -21.078125 53.78125 -21.078125 Z M 45.0625 -110.109375 L 63.40625 -146.453125 L 91.21875 -146.453125 L 67.40625 -109.9375 Z M 45.0625 -110.109375 "/></g></g></g><g fill="#f43f5e" fill-opacity="1"><g transform="translate(1691.448889, 279.558336)"><g><path d="M 9.453125 -96.125 L 37.796875 -96.125 L 37.796875 -82.125 L 39.25 -82.125 C 41.3125 -86.613281 44.671875 -90.398438 49.328125 -93.484375 C 53.992188 -96.578125 59.660156 -98.125 66.328125 -98.125 C 78.921875 -98.125 87.640625 -94.15625 92.484375 -86.21875 C 97.328125 -78.28125 99.75 -69.40625 99.75 -59.59375 L 99.75 0 L 71.40625 0 L 71.40625 -54.6875 C 71.40625 -60.988281 70.007812 -65.957031 67.21875 -69.59375 C 64.4375 -73.226562 60.320312 -75.046875 54.875 -75.046875 C 49.0625 -75.046875 44.757812 -73.132812 41.96875 -69.3125 C 39.1875 -65.5 37.796875 -60.625 37.796875 -54.6875 L 37.796875 0 L 9.453125 0 Z M 9.453125 -96.125 "/></g></g></g></svg>